# xmcd
#
# Track frame offsets:
#	150
#	19355
#	36900
#	57070
#	77447
#	89042
#	107807
#	127665
#	141992
#	162495
#
# Disc length: 2324 seconds
#
# Revision: 1
# Processed by: cddbd v1.5PL3 Copyright (c) Steve Scherf et al.
# Submitted via: CDex 1.50Beta5
#
DISCID=8109120a
DTITLE=小川範子 - 吟遊少女
DYEAR=1990
DGENRE=Pop
TTITLE0=涙をたばねて
TTITLE1=永遠のうたたね
TTITLE2=こわれる
TTITLE3=ガラスの目隠し
TTITLE4=駱駝の秘密
TTITLE5=桜桃記
TTITLE6=夏色の天使
TTITLE7=無実の罪
TTITLE8=ひとみしりAngel
TTITLE9=旅
EXTD=
EXTT0=
EXTT1=
EXTT2=
EXTT3=
EXTT4=
EXTT5=
EXTT6=
EXTT7=
EXTT8=
EXTT9=
PLAYORDER=
